<?xml version="1.0" encoding="UTF-8"?>
<svg 
  xmlns="http://www.w3.org/2000/svg" 
  width="512" 
  height="512" 
  viewBox="0 0 24 24"
  fill="currentColor"
>
  <path d="M12,5.5a4.031,4.031,0,1,0,4.03,4.03A4.035,4.035,0,0,0,12,5.5Zm0,7.061A3.031,3.031,0,1,1,15.03,9.53,3.035,3.035,0,0,1,12,12.561Zm.707,3.118H11.294a5.166,5.166,0,0,0-4.458,2.572A.5.5,0,0,1,6.4,18.5a.491.491,0,0,1-.25-.067.5.5,0,0,1-.182-.684,6.168,6.168,0,0,1,5.323-3.07h1.413a6.167,6.167,0,0,1,5.322,3.069.5.5,0,1,1-.865.5A5.168,5.168,0,0,0,12.707,15.679ZM24,3.3V8.088a.5.5,0,1,1-1,0V3.3A2.305,2.305,0,0,0,20.7,1H16a.5.5,0,0,1,0-1h4.7A3.306,3.306,0,0,1,24,3.3ZM0,8.088V3.3A3.306,3.306,0,0,1,3.3,0H8A.5.5,0,0,1,8,1H3.3A2.305,2.305,0,0,0,1,3.3V8.088a.5.5,0,0,1-1,0Zm24,8V20.7A3.306,3.306,0,0,1,20.7,24H16a.5.5,0,0,1,0-1h4.7A2.305,2.305,0,0,0,23,20.7V16.088a.5.5,0,0,1,1,0ZM0,20.7V16.088a.5.5,0,1,1,1,0V20.7A2.305,2.305,0,0,0,3.3,23H8a.5.5,0,0,1,0,1H3.3A3.306,3.306,0,0,1,0,20.7Z"/>
</svg>